<mxfile host="app.diagrams.net" modified="2024-06-26T00:03:00.740Z" agent="Mozilla/5.0 (Windows NT 10.0; Win64; x64) AppleWebKit/537.36 (KHTML, like Gecko) Chrome/126.0.0.0 Safari/537.36" etag="hSOd5ehT4XRIlIJH9UrD" version="24.6.3" type="github">
  <diagram name="PÃ¡gina-1" id="U1wBTpCfA89Zt9UXRy-l">
    <mxGraphModel dx="989" dy="514" grid="1" gridSize="10" guides="1" tooltips="1" connect="1" arrows="1" fold="1" page="1" pageScale="1" pageWidth="827" pageHeight="1169" math="0" shadow="0">
      <root>
        <mxCell id="0" />
        <mxCell id="1" parent="0" />
        <mxCell id="QCGJDvceZWw-1iXdxH1Q-26" value="Frontend Server" style="verticalAlign=top;align=left;spacingTop=8;spacingLeft=2;spacingRight=12;shape=cube;size=10;direction=south;fontStyle=4;html=1;whiteSpace=wrap;" vertex="1" parent="1">
          <mxGeometry x="570" y="430" width="230" height="150" as="geometry" />
        </mxCell>
        <mxCell id="QCGJDvceZWw-1iXdxH1Q-1" value="Cliente Server" style="verticalAlign=top;align=left;spacingTop=8;spacingLeft=2;spacingRight=12;shape=cube;size=10;direction=south;fontStyle=4;html=1;whiteSpace=wrap;" vertex="1" parent="1">
          <mxGeometry x="260" y="130" width="270" height="200" as="geometry" />
        </mxCell>
        <mxCell id="QCGJDvceZWw-1iXdxH1Q-2" value="&lt;div style=&quot;&quot;&gt;&lt;span style=&quot;background-color: initial;&quot;&gt;Navegador HTML&lt;/span&gt;&lt;/div&gt;" style="shape=module;align=left;spacingLeft=20;align=center;verticalAlign=top;whiteSpace=wrap;html=1;" vertex="1" parent="1">
          <mxGeometry x="320" y="210" width="160" height="100" as="geometry" />
        </mxCell>
        <mxCell id="QCGJDvceZWw-1iXdxH1Q-8" value="" style="shape=module;align=left;spacingLeft=20;align=center;verticalAlign=top;whiteSpace=wrap;html=1;" vertex="1" parent="1">
          <mxGeometry x="600" y="474" width="170" height="80" as="geometry" />
        </mxCell>
        <mxCell id="QCGJDvceZWw-1iXdxH1Q-9" value="&lt;div&gt;Enviar Paper&lt;/div&gt;&lt;div&gt;Ver Paper&lt;/div&gt;" style="html=1;whiteSpace=wrap;strokeColor=none;" vertex="1" parent="1">
          <mxGeometry x="340" y="240" width="130" height="60" as="geometry" />
        </mxCell>
        <mxCell id="QCGJDvceZWw-1iXdxH1Q-10" value="Manejar solicitudes HTTP&lt;div&gt;Servir Archivos&lt;/div&gt;" style="html=1;whiteSpace=wrap;strokeColor=none;" vertex="1" parent="1">
          <mxGeometry x="630" y="484" width="130" height="60" as="geometry" />
        </mxCell>
        <mxCell id="QCGJDvceZWw-1iXdxH1Q-18" value="Backend Server" style="verticalAlign=top;align=left;spacingTop=8;spacingLeft=2;spacingRight=12;shape=cube;size=10;direction=south;fontStyle=4;html=1;whiteSpace=wrap;" vertex="1" parent="1">
          <mxGeometry x="240" y="435" width="230" height="150" as="geometry" />
        </mxCell>
        <mxCell id="QCGJDvceZWw-1iXdxH1Q-16" value="" style="shape=module;align=left;spacingLeft=20;align=center;verticalAlign=top;whiteSpace=wrap;html=1;" vertex="1" parent="1">
          <mxGeometry x="280" y="484" width="170" height="86" as="geometry" />
        </mxCell>
        <mxCell id="QCGJDvceZWw-1iXdxH1Q-17" value="Registrar Paper&lt;div&gt;Obtener Paper&lt;/div&gt;&lt;div&gt;Enviar Correos&lt;/div&gt;" style="html=1;whiteSpace=wrap;strokeColor=none;" vertex="1" parent="1">
          <mxGeometry x="300" y="497" width="140" height="60" as="geometry" />
        </mxCell>
        <mxCell id="QCGJDvceZWw-1iXdxH1Q-19" value="DB Server" style="verticalAlign=top;align=left;spacingTop=8;spacingLeft=2;spacingRight=12;shape=cube;size=10;direction=south;fontStyle=4;html=1;whiteSpace=wrap;" vertex="1" parent="1">
          <mxGeometry x="20" y="460" width="160" height="100" as="geometry" />
        </mxCell>
        <mxCell id="QCGJDvceZWw-1iXdxH1Q-20" value="DB MySQL" style="shape=module;align=left;spacingLeft=20;align=center;verticalAlign=top;whiteSpace=wrap;html=1;" vertex="1" parent="1">
          <mxGeometry x="50" y="512" width="110" height="30" as="geometry" />
        </mxCell>
        <mxCell id="QCGJDvceZWw-1iXdxH1Q-23" value="" style="endArrow=open;endFill=1;endSize=12;html=1;rounded=0;entryX=1.003;entryY=0.494;entryDx=0;entryDy=0;entryPerimeter=0;exitX=0;exitY=0;exitDx=0;exitDy=110;exitPerimeter=0;" edge="1" parent="1" target="QCGJDvceZWw-1iXdxH1Q-19">
          <mxGeometry width="160" relative="1" as="geometry">
            <mxPoint x="340" y="585" as="sourcePoint" />
            <mxPoint x="159.68000000000006" y="671" as="targetPoint" />
            <Array as="points">
              <mxPoint x="340" y="620" />
              <mxPoint x="100" y="620" />
            </Array>
          </mxGeometry>
        </mxCell>
        <mxCell id="QCGJDvceZWw-1iXdxH1Q-24" value="TCP/IP" style="edgeLabel;html=1;align=center;verticalAlign=middle;resizable=0;points=[];" vertex="1" connectable="0" parent="QCGJDvceZWw-1iXdxH1Q-23">
          <mxGeometry x="-0.076" y="-1" relative="1" as="geometry">
            <mxPoint as="offset" />
          </mxGeometry>
        </mxCell>
        <mxCell id="QCGJDvceZWw-1iXdxH1Q-27" value="" style="endArrow=open;endFill=1;endSize=12;html=1;rounded=0;exitX=1.011;exitY=0.479;exitDx=0;exitDy=0;exitPerimeter=0;entryX=0;entryY=0;entryDx=0;entryDy=110;entryPerimeter=0;" edge="1" parent="1" source="QCGJDvceZWw-1iXdxH1Q-1" target="QCGJDvceZWw-1iXdxH1Q-26">
          <mxGeometry width="160" relative="1" as="geometry">
            <mxPoint x="490" y="340" as="sourcePoint" />
            <mxPoint x="620" y="430" as="targetPoint" />
            <Array as="points">
              <mxPoint x="400" y="380" />
              <mxPoint x="690" y="380" />
            </Array>
          </mxGeometry>
        </mxCell>
        <mxCell id="QCGJDvceZWw-1iXdxH1Q-28" value="HTTPS" style="edgeLabel;html=1;align=center;verticalAlign=middle;resizable=0;points=[];" vertex="1" connectable="0" parent="QCGJDvceZWw-1iXdxH1Q-27">
          <mxGeometry x="-0.04" y="-3" relative="1" as="geometry">
            <mxPoint as="offset" />
          </mxGeometry>
        </mxCell>
        <mxCell id="QCGJDvceZWw-1iXdxH1Q-30" value="" style="endArrow=open;endFill=1;endSize=12;html=1;rounded=0;exitX=0;exitY=0;exitDx=80;exitDy=230;exitPerimeter=0;entryX=0.493;entryY=0.004;entryDx=0;entryDy=0;entryPerimeter=0;" edge="1" parent="1" source="QCGJDvceZWw-1iXdxH1Q-26" target="QCGJDvceZWw-1iXdxH1Q-18">
          <mxGeometry width="160" relative="1" as="geometry">
            <mxPoint x="510" y="620" as="sourcePoint" />
            <mxPoint x="710" y="710" as="targetPoint" />
            <Array as="points" />
          </mxGeometry>
        </mxCell>
        <mxCell id="QCGJDvceZWw-1iXdxH1Q-31" value="HTTPS" style="edgeLabel;html=1;align=center;verticalAlign=middle;resizable=0;points=[];" vertex="1" connectable="0" parent="QCGJDvceZWw-1iXdxH1Q-30">
          <mxGeometry x="-0.04" y="-3" relative="1" as="geometry">
            <mxPoint as="offset" />
          </mxGeometry>
        </mxCell>
      </root>
    </mxGraphModel>
  </diagram>
</mxfile>
